<svg width="200" height="34" viewBox="0 0 200 34" fill="none" xmlns="http://www.w3.org/2000/svg">
<mask id="mask0_1907_780" style="mask-type:luminance" maskUnits="userSpaceOnUse" x="196" y="0" width="4" height="33">
<path d="M200 0.680115V32.9486H196.162V0.680115H200Z" fill="white"/>
</mask>
<g mask="url(#mask0_1907_780)">
<path d="M202.08 -0.699188H194.926V34.4137H202.08V-0.699188Z" fill="url(#paint0_linear_1907_780)"/>
<path opacity="0.1" d="M190.63 -0.963723C190.387 2.68836 206.189 3.61747 205.739 18.8476C205.739 18.8476 208.626 7.86989 203.545 0.887332C200.186 -3.72959 192.017 -2.02862 190.63 -0.963723Z" fill="white"/>
<path d="M200.543 35.3L196.527 -3.28632L194.597 9.81402L193.554 33.9778L200.543 35.3Z" fill="url(#paint1_linear_1907_780)"/>
<path d="M200.043 36.6151L195.04 4.96844L194.154 35.5145L200.043 36.6151Z" fill="url(#paint2_linear_1907_780)"/>
</g>
<mask id="mask1_1907_780" style="mask-type:luminance" maskUnits="userSpaceOnUse" x="171" y="9" width="23" height="25">
<path d="M189.523 31.4548C187.772 32.7841 185.577 33.4416 182.926 33.4416C181.061 33.4416 179.438 33.1415 178.066 32.5411C176.694 31.9408 175.543 31.0975 174.607 30.0111C173.671 28.9248 172.97 27.6312 172.506 26.1232C172.041 24.6152 171.777 22.9785 171.712 21.1989C171.712 19.4193 171.984 17.797 172.527 16.3176C173.07 14.8453 173.828 13.5589 174.807 12.4797C175.786 11.3933 176.944 10.55 178.288 9.94965C179.631 9.34931 181.096 9.04913 182.69 9.04913C184.77 9.04913 186.492 9.47796 187.865 10.3356C189.237 11.1932 190.337 12.2867 191.166 13.6089C191.995 14.9382 192.567 16.3819 192.882 17.9471C193.196 19.5123 193.325 21.006 193.268 22.4211H175.779C175.75 23.4431 175.872 24.4151 176.144 25.337C176.415 26.259 176.851 27.0666 177.451 27.7741C178.052 28.4817 178.824 29.0463 179.753 29.4679C180.689 29.8896 181.79 30.104 183.055 30.104C184.684 30.104 186.013 29.7252 187.057 28.9748C188.093 28.2244 188.779 27.0737 189.115 25.5371H192.91C192.396 28.1601 191.266 30.1326 189.523 31.4548ZM188.594 16.4534C188.243 15.6386 187.779 14.9382 187.193 14.3522C186.607 13.7661 185.913 13.2944 185.113 12.9514C184.312 12.6083 183.433 12.4296 182.469 12.4296C181.504 12.4296 180.575 12.6012 179.781 12.9514C178.981 13.3016 178.295 13.7733 177.723 14.3736C177.151 14.974 176.701 15.6744 176.365 16.4748C176.036 17.2753 175.836 18.1258 175.779 19.0263H189.201C189.144 18.1258 188.937 17.261 188.594 16.4534Z" fill="white"/>
</mask>
<g mask="url(#mask1_1907_780)">
<path d="M194.204 18.5903H174.378V23.2501H194.204V18.5903Z" fill="url(#paint3_linear_1907_780)"/>
<path d="M178.959 34.3564L191.981 34.1563L193.682 25.0082H188.836L187.421 26.3018H177.48L178.959 34.3564Z" fill="url(#paint4_linear_1907_780)"/>
<path d="M188.451 34.2563C188.451 34.2563 168.711 28.3816 180.053 12.5725C183.948 7.148 179.817 7.89841 176.244 10.7929C170.698 15.2883 170.355 21.1203 170.355 21.1203L172.313 29.4464L178.538 34.3349L188.451 34.2563Z" fill="url(#paint5_linear_1907_780)"/>
<path opacity="0.15" d="M181.89 28.0098C181.89 28.0098 176.587 25.6228 176.608 25.8586C176.887 29.3249 182.883 33.949 188.508 26.9521C188.865 26.509 186.492 25.9158 186.492 25.9158C186.492 25.9158 183.626 25.9158 181.89 28.0098Z" fill="white"/>
<path d="M186.628 15.4957C186.628 15.4957 167.925 8.43447 174.457 32.8413C174.457 32.8413 165.144 15.8673 174.929 10.3784C184.841 4.81812 192.653 10.6071 192.653 10.6071L186.621 15.5028L186.628 15.4957Z" fill="url(#paint6_linear_1907_780)"/>
<path d="M187.25 15.0311C186.592 14.2878 184.734 13.3801 183.776 13.1014C181.325 12.3724 176.63 12.6011 173.542 13.1443C171.019 13.5874 174.829 9.09911 177.78 8.56309C181.732 7.84125 188.301 8.80609 188.301 8.80609L194.383 13.3158L194.097 23.0285C194.097 23.0285 190.001 21.3776 188.522 17.7469C188.243 17.0537 187.743 15.6028 187.243 15.0454L187.25 15.0311Z" fill="url(#paint7_linear_1907_780)"/>
<path opacity="0.1" d="M193.26 18.9547C191.359 13.6945 186.221 6.49754 171.477 11.1502C170.826 11.3575 174.736 8.55586 175.193 8.47009C183.169 6.96924 192.453 7.99126 194.575 18.4186L193.26 18.9547Z" fill="white"/>
<path d="M178.959 23.543C177.459 23.8074 175.8 24.8794 175.658 22.7139C175.515 20.5555 175.886 18.0541 176.258 17.904C176.637 17.754 178.552 18.0184 179.824 18.0184C181.918 18.0184 180.539 21.2131 187.75 23.0856C190.159 23.7145 178.959 23.5358 178.959 23.5358V23.543Z" fill="url(#paint8_linear_1907_780)"/>
</g>
<mask id="mask2_1907_780" style="mask-type:luminance" maskUnits="userSpaceOnUse" x="150" y="9" width="22" height="24">
<path d="M159.098 32.9414L150.422 9.578H154.717L161.271 29.0534H161.364L167.739 9.578H171.763L163.222 32.9414H159.112H159.098Z" fill="white"/>
</mask>
<g mask="url(#mask2_1907_780)">
<path d="M154.974 8.57043C154.974 8.57043 159.834 22.1639 161.507 27.1811L164.108 34.0779L158.719 34.0493L149.636 9.22794L154.974 8.57043Z" fill="url(#paint9_linear_1907_780)"/>
<path d="M173.342 8.27032L171.155 14.2452L166.481 27.124L164.087 33.4347L158.969 33.399L160.856 28.1888L165.666 8.82779" fill="url(#paint10_linear_1907_780)"/>
<path d="M165.795 10.2715C165.795 10.2715 170.912 17.254 169.34 22.1139C167.774 26.9667 173.335 8.27032 173.335 8.27032L166.702 8.38468L165.795 10.2786V10.2715Z" fill="url(#paint11_linear_1907_780)"/>
<path d="M163.787 33.9492L173.728 9.04922L169.032 10.8217L163.065 33.9706L163.787 33.9492Z" fill="url(#paint12_linear_1907_780)"/>
<path opacity="0.2" d="M165.473 6.99094V9.6782H167.246L169.111 10.9003L171.92 9.6782L172.692 9.28513L174.514 6.93378C174.514 6.93378 170.433 6.96237 165.48 6.98381L165.473 6.99094Z" fill="white"/>
<path d="M159.255 33.4775L154.26 11.3505L153.795 9.01348L156.354 8.8634L161.442 27.5741L161.235 33.4346L159.255 33.4775Z" fill="url(#paint13_linear_1907_780)"/>
<path opacity="0.2" d="M150.172 8.83478L150.157 9.55663L154.26 11.3505L155.139 9.14924L154.717 8.87766L150.172 8.83478Z" fill="white"/>
</g>
<mask id="mask3_1907_780" style="mask-type:luminance" maskUnits="userSpaceOnUse" x="129" y="9" width="23" height="25">
<path d="M151.079 32.8556C150.415 33.2487 149.5 33.4416 148.321 33.4416C147.327 33.4416 146.534 33.1629 145.948 32.6055C145.362 32.048 145.069 31.1332 145.069 29.8682C144.011 31.1332 142.789 32.048 141.388 32.6055C139.987 33.1629 138.472 33.4416 136.85 33.4416C135.792 33.4416 134.791 33.3201 133.848 33.0771C132.897 32.8341 132.076 32.4625 131.382 31.9479C130.689 31.4333 130.139 30.7687 129.731 29.9396C129.324 29.1106 129.124 28.11 129.124 26.9379C129.124 25.6157 129.353 24.5294 129.803 23.6861C130.253 22.8427 130.846 22.1566 131.59 21.6277C132.326 21.0989 133.169 20.6986 134.12 20.4271C135.07 20.1555 136.042 19.9268 137.035 19.7481C138.086 19.5408 139.094 19.3765 140.037 19.2764C140.988 19.1692 141.824 19.0191 142.546 18.8262C143.268 18.6332 143.839 18.3473 144.261 17.9685C144.683 17.5897 144.897 17.0394 144.897 16.3176C144.897 15.4742 144.74 14.7953 144.425 14.2807C144.111 13.7661 143.704 13.3802 143.203 13.1086C142.703 12.837 142.146 12.6583 141.531 12.5654C140.916 12.4725 140.302 12.4296 139.701 12.4296C138.072 12.4296 136.721 12.7369 135.635 13.3587C134.548 13.9734 133.962 15.1455 133.869 16.8607H130.031C130.089 15.4171 130.396 14.1949 130.932 13.2015C131.475 12.2081 132.197 11.4005 133.105 10.7858C134.005 10.1712 135.042 9.72093 136.199 9.44935C137.357 9.17777 138.601 9.04199 139.93 9.04199C140.988 9.04199 142.031 9.12059 143.068 9.27068C144.104 9.42076 145.047 9.72809 145.891 10.1926C146.734 10.6572 147.413 11.3147 147.92 12.1509C148.435 12.9942 148.685 14.0877 148.685 15.4385V27.4311C148.685 28.3316 148.735 28.9962 148.842 29.4179C148.949 29.8396 149.3 30.0468 149.907 30.0468C150.236 30.0468 150.629 29.9897 151.079 29.8682V32.8484V32.8556ZM144.84 20.8773C144.361 21.2347 143.725 21.4991 142.939 21.6635C142.153 21.8279 141.338 21.9636 140.473 22.0709C139.616 22.1781 138.751 22.2996 137.872 22.4282C137 22.564 136.214 22.7784 135.52 23.0786C134.827 23.3787 134.262 23.8076 133.827 24.3579C133.391 24.9153 133.169 25.6729 133.169 26.6306C133.169 27.2595 133.298 27.7956 133.555 28.2244C133.812 28.6603 134.141 29.0105 134.548 29.2821C134.956 29.5537 135.427 29.7467 135.971 29.8682C136.514 29.9897 137.086 30.0468 137.686 30.0468C138.951 30.0468 140.037 29.8753 140.938 29.5323C141.838 29.1892 142.582 28.7532 143.153 28.2315C143.725 27.7098 144.147 27.138 144.418 26.5234C144.69 25.9088 144.826 25.3299 144.826 24.7938V20.8845L144.84 20.8773Z" fill="white"/>
</mask>
<g mask="url(#mask3_1907_780)">
<path d="M149.257 11.5933C149.257 11.5933 145.226 17.0679 140.831 17.9327C136.435 18.7975 133.555 19.2977 133.555 19.2977L135.642 23.6931C135.642 23.6931 139.101 23.1857 140.759 22.6139C142.417 22.035 147.82 21.3203 149.55 19.4478L149.264 11.5933H149.257Z" fill="url(#paint14_linear_1907_780)"/>
<path d="M152.359 28.946C141.91 28.1598 131.318 22.5209 142.06 8.12697C142.331 7.76247 135.549 7.97687 134.941 8.31993C129.381 11.4431 126.072 19.0046 128.516 28.5886C130.246 35.3639 142.096 34.7565 151.93 33.6272C152.316 33.5844 152.551 28.9603 152.359 28.946Z" fill="url(#paint15_linear_1907_780)"/>
<path d="M150.193 24.4864C150.193 24.4864 137.071 40.4312 128.581 17.6468C128.495 17.4181 127.766 24.9438 127.787 25.2083C128.073 28.2314 128.073 30.4041 132.612 33.3486C140.387 38.3872 148.592 27.8098 150.186 24.4864H150.193Z" fill="url(#paint16_linear_1907_780)"/>
<path d="M133.126 33.5559C133.126 33.5559 132.74 30.4255 141.124 28.6602C141.124 28.6602 144.869 25.0582 144.597 14.6522C144.597 14.6522 153.581 22.471 151.851 33.27C151.851 33.27 143.182 36.6505 133.126 33.5559Z" fill="url(#paint17_linear_1907_780)"/>
<path d="M130.089 13.9517C133.634 12.8582 138.815 11.4788 142.989 13.6015C145.719 14.9951 148.464 20.7341 149.471 28.3671C149.507 28.6243 149.657 14.4805 149.607 14.3233C149.107 12.8796 148.692 11.0214 147.234 10.0709C142.424 6.91195 136.299 8.26986 132.333 10.0137C132.126 10.1066 129.846 14.016 130.082 13.9445L130.089 13.9517Z" fill="url(#paint18_linear_1907_780)"/>
<path opacity="0.21" d="M129.431 12.4723C129.431 12.4723 147.72 -0.0276608 152.065 25.1725C152.065 25.1725 153.888 12.2794 146.219 7.54096C138.551 2.80969 130.81 9.97806 129.431 12.4652V12.4723Z" fill="white"/>
<path opacity="0.2" d="M129.124 28.3242C129.931 24.3219 132.376 20.0052 138.979 19.0046C139.644 18.9046 140.03 18.3042 140.03 18.3042C140.03 18.3042 134.062 18.7187 131.754 20.2339C124.221 25.1796 129.074 28.5458 129.117 28.3242H129.124Z" fill="white"/>
<path opacity="0.15" d="M144.647 21.5275C144.647 21.5275 145.49 33.9203 133.698 26.4946C133.698 26.4946 133.984 32.155 140.716 30.6041C145.726 29.4463 145.083 23.0498 144.647 21.5275Z" fill="white"/>
</g>
<mask id="mask4_1907_780" style="mask-type:luminance" maskUnits="userSpaceOnUse" x="116" y="9" width="14" height="24">
<path d="M120.455 9.57802V13.5946H120.547C121.484 11.6935 122.413 11.0717 123.771 10.1712C125.129 9.27069 127.058 8.98483 129.138 9.042V13.1086C127.602 13.1086 126.294 13.323 125.207 13.7447C124.121 14.1663 123.249 14.781 122.584 15.5957C121.92 16.4105 121.441 17.3968 121.141 18.5546C120.841 19.7124 120.69 21.0489 120.69 22.5569V32.9485H116.853V9.58515H120.469L120.455 9.57802Z" fill="white"/>
</mask>
<g mask="url(#mask4_1907_780)">
<path d="M130.189 7.30511H114.394V34.2634H130.189V7.30511Z" fill="url(#paint19_linear_1907_780)"/>
<path d="M121.448 10.4713C121.448 10.4713 115.016 19.069 121.612 35.7071L115.623 35.2068L115.066 8.69167L122.556 8.0842L121.448 10.4713Z" fill="url(#paint20_linear_1907_780)"/>
<path d="M125.15 8.89179C125.15 8.89179 114.001 11.6791 115.831 34.9781L115.066 5.76144L125.15 8.89894V8.89179Z" fill="url(#paint21_linear_1907_780)"/>
<path d="M131.061 10.7214C131.061 10.7214 120.991 10.557 121.034 20.5413L128.066 15.0882L130.275 13.6302L131.068 10.7214H131.061Z" fill="#EE4023"/>
</g>
<mask id="mask5_1907_780" style="mask-type:luminance" maskUnits="userSpaceOnUse" x="101" y="2" width="13" height="31">
<path d="M113.708 9.57798V12.9656H109.055V27.4739C109.055 27.9242 109.091 28.2887 109.17 28.5603C109.241 28.8318 109.391 29.0391 109.598 29.1963C109.806 29.3464 110.106 29.4465 110.477 29.4893C110.856 29.5322 111.342 29.5537 111.95 29.5537H113.715V32.9413H110.778C109.784 32.9413 108.934 32.877 108.226 32.7412C107.519 32.6054 106.947 32.3553 106.511 31.9979C106.075 31.6334 105.746 31.126 105.539 30.4613C105.325 29.7967 105.224 28.9247 105.224 27.8384V12.9728H101.251V9.58511H105.224V2.58112H109.062V9.58511H113.715L113.708 9.57798Z" fill="white"/>
</mask>
<g mask="url(#mask5_1907_780)">
<path d="M114.98 1.23761H100.45V33.8205H114.98V1.23761Z" fill="url(#paint22_linear_1907_780)"/>
<path d="M111.342 1.23058C111.342 1.23058 106.44 -1.03498 105.332 25.8161L104.346 13.5448L100.558 13.5019L100.679 9.178L104.017 8.92785L104.224 1.72372L111.35 1.23058H111.342Z" fill="url(#paint23_linear_1907_780)"/>
<path d="M109.291 1.45199L100.972 15.8674L100.808 7.13382L102.13 1.03748L109.291 1.45199Z" fill="url(#paint24_linear_1907_780)"/>
<path d="M104.338 13.5446C104.338 13.5446 107.976 29.8539 114.694 29.1249C121.412 28.396 114.508 34.0778 114.508 34.0778L106.518 34.3208L104.338 13.5518V13.5446Z" fill="url(#paint25_linear_1907_780)"/>
<path d="M104.767 20.1913C105.017 20.3986 103.574 32.8771 114.401 32.7771C123.092 32.6985 104.517 33.0772 104.517 33.0772L104.767 20.1842V20.1913Z" fill="url(#paint26_linear_1907_780)"/>
<path opacity="0.1" d="M99.1496 2.32396C98.9066 5.97604 114.708 6.90515 114.258 22.1353C114.258 22.1353 117.146 11.1576 112.064 4.17503C108.705 -0.441891 100.536 1.25906 99.1496 2.32396Z" fill="white"/>
</g>
<path d="M33.6549 27.3451C34.6126 28.2742 35.992 28.7388 37.793 28.7388C39.0794 28.7388 40.1944 28.4172 41.1235 27.774C42.0526 27.1307 42.6243 26.4446 42.8316 25.7299H48.4562C47.5557 28.5172 46.1764 30.5113 44.3182 31.7119C42.46 32.9126 40.2087 33.513 37.5714 33.513C35.7418 33.513 34.0909 33.2199 32.6258 32.6339C31.1535 32.0478 29.9099 31.2188 28.8951 30.1396C27.873 29.0604 27.0869 27.774 26.5366 26.2731C25.9791 24.7722 25.7075 23.1213 25.7075 21.3274C25.7075 19.5336 25.9934 17.9684 26.5652 16.4675C27.1369 14.9666 27.9445 13.6731 28.9951 12.5724C30.0457 11.4789 31.2964 10.6142 32.7544 9.98522C34.2124 9.35629 35.8204 9.04184 37.5929 9.04184C39.5726 9.04184 41.295 9.42061 42.7673 10.1853C44.2395 10.9501 45.4402 11.9792 46.3908 13.2657C47.3342 14.5521 48.0203 16.0244 48.4348 17.6753C48.8565 19.3263 49.0066 21.0487 48.8851 22.8497H32.104C32.1969 24.9223 32.7187 26.416 33.6764 27.3451H33.6549ZM40.8733 15.1096C40.1086 14.2734 38.9437 13.8517 37.3856 13.8517C36.3636 13.8517 35.5203 14.0232 34.8413 14.3663C34.1695 14.7094 33.6263 15.1382 33.219 15.6456C32.8116 16.153 32.5257 16.6962 32.3613 17.268C32.1969 17.8397 32.0969 18.3472 32.0683 18.7974H42.46C42.1598 17.1751 41.6309 15.9458 40.8662 15.1096H40.8733Z" fill="#21409A"/>
<path d="M64.544 9.66352V13.9374H59.8628V25.4583C59.8628 26.5375 60.0414 27.2593 60.4059 27.6166C60.7633 27.974 61.4851 28.1598 62.5643 28.1598C62.9217 28.1598 63.2719 28.1455 63.6006 28.1169C63.9294 28.0883 64.2438 28.0383 64.544 27.9811V32.9268C64.0008 33.0197 63.4005 33.0769 62.743 33.1055C62.0855 33.1341 61.4351 33.1484 60.8062 33.1484C59.8199 33.1484 58.8765 33.084 57.9974 32.9482C57.1112 32.8125 56.3322 32.548 55.6604 32.1621C54.9885 31.769 54.4525 31.2187 54.0666 30.4968C53.6735 29.775 53.4805 28.8316 53.4805 27.6667V13.9445H49.614V9.67065H53.4805V2.69525H59.8699V9.67065H64.5512L64.544 9.66352Z" fill="#21409A"/>
<path d="M74.3782 9.66354V32.9197H67.9889V9.66354H74.3782Z" fill="#21409A"/>
<path d="M84.7413 0.801392V18.0327L92.7959 9.66359H100.35L91.5809 18.2113L101.344 32.9197H93.6035L87.2141 22.5281L84.7413 24.9152V32.9197H78.3519V0.801392H84.7413Z" fill="#21409A"/>
<path d="M16.731 0.901367V11.5932C15.0229 10.3282 12.9646 9.59205 10.749 9.59205C4.81704 9.59205 0 14.8879 0 21.4202C0 27.9525 4.8099 33.2484 10.749 33.2484C12.9646 33.2484 15.0229 32.5123 16.731 31.2473V32.9268H22.9631V0.908521H16.731V0.901367ZM10.8562 28.2098C7.86878 28.2098 5.44598 25.1724 5.44598 21.4202C5.44598 17.6681 7.86878 14.6306 10.8562 14.6306C13.8436 14.6306 16.2664 17.6681 16.2664 21.4202C16.2664 25.1724 13.8436 28.2098 10.8562 28.2098Z" fill="#21409A"/>
<path d="M74.5355 3.83176C74.5355 5.68282 73.0346 7.17653 71.1907 7.17653C69.3468 7.17653 67.8459 5.67567 67.8459 3.83176C67.8459 1.98785 69.3468 0.487 71.1907 0.487C73.0346 0.487 74.5355 1.98785 74.5355 3.83176Z" fill="url(#paint27_radial_1907_780)"/>
<defs>
<linearGradient id="paint0_linear_1907_780" x1="194.926" y1="16.8608" x2="202.08" y2="16.8608" gradientUnits="userSpaceOnUse">
<stop stop-color="#F79720"/>
<stop offset="1" stop-color="#FCB918"/>
</linearGradient>
<linearGradient id="paint1_linear_1907_780" x1="193.554" y1="16.0033" x2="200.543" y2="16.0033" gradientUnits="userSpaceOnUse">
<stop stop-color="#E2791E"/>
<stop offset="1" stop-color="#F89A1C"/>
</linearGradient>
<linearGradient id="paint2_linear_1907_780" x1="197.034" y1="36.901" x2="197.699" y2="15.8532" gradientUnits="userSpaceOnUse">
<stop stop-color="#F89A1F"/>
<stop offset="1" stop-color="#DD711F"/>
</linearGradient>
<linearGradient id="paint3_linear_1907_780" x1="179.46" y1="22.2495" x2="196.92" y2="17.4396" gradientUnits="userSpaceOnUse">
<stop stop-color="#F37721"/>
<stop offset="0.83" stop-color="#F79820"/>
</linearGradient>
<linearGradient id="paint4_linear_1907_780" x1="177.48" y1="29.6823" x2="193.682" y2="29.6823" gradientUnits="userSpaceOnUse">
<stop stop-color="#EE3825"/>
<stop offset="0.74" stop-color="#F79720"/>
</linearGradient>
<linearGradient id="paint5_linear_1907_780" x1="176.405" y1="17.1654" x2="182.689" y2="40.5535" gradientUnits="userSpaceOnUse">
<stop offset="0.35" stop-color="#F16623"/>
<stop offset="0.88" stop-color="#F79720"/>
</linearGradient>
<linearGradient id="paint6_linear_1907_780" x1="184.241" y1="6.87644" x2="173.849" y2="32.5911" gradientUnits="userSpaceOnUse">
<stop offset="0.35" stop-color="#F16623"/>
<stop offset="0.88" stop-color="#F79720"/>
</linearGradient>
<linearGradient id="paint7_linear_1907_780" x1="172.72" y1="15.6529" x2="194.383" y2="15.6529" gradientUnits="userSpaceOnUse">
<stop stop-color="#F37721"/>
<stop offset="0.83" stop-color="#F79820"/>
</linearGradient>
<linearGradient id="paint8_linear_1907_780" x1="178.188" y1="20.92" x2="191.895" y2="20.6199" gradientUnits="userSpaceOnUse">
<stop offset="0.35" stop-color="#F16623"/>
<stop offset="0.88" stop-color="#F79720"/>
</linearGradient>
<linearGradient id="paint9_linear_1907_780" x1="164.975" y1="21.8335" x2="148.668" y2="20.5652" gradientUnits="userSpaceOnUse">
<stop offset="0.35" stop-color="#ED2524"/>
<stop offset="0.75" stop-color="#F27123"/>
</linearGradient>
<linearGradient id="paint10_linear_1907_780" x1="162.393" y1="33.3847" x2="168.725" y2="11.272" gradientUnits="userSpaceOnUse">
<stop stop-color="#F05524"/>
<stop offset="1" stop-color="#F27123"/>
</linearGradient>
<linearGradient id="paint11_linear_1907_780" x1="173.706" y1="15.2103" x2="166.056" y2="15.7506" gradientUnits="userSpaceOnUse">
<stop stop-color="#E91D25"/>
<stop offset="1" stop-color="#F27123"/>
</linearGradient>
<linearGradient id="paint12_linear_1907_780" x1="161.55" y1="33.2916" x2="172.577" y2="8.53464" gradientUnits="userSpaceOnUse">
<stop offset="0.21" stop-color="#F05924"/>
<stop offset="0.75" stop-color="#F79720"/>
</linearGradient>
<linearGradient id="paint13_linear_1907_780" x1="153.652" y1="23.3645" x2="161.871" y2="18.8119" gradientUnits="userSpaceOnUse">
<stop offset="0.21" stop-color="#F05725"/>
<stop offset="0.78" stop-color="#F5891F"/>
</linearGradient>
<linearGradient id="paint14_linear_1907_780" x1="147.434" y1="21.9064" x2="138.136" y2="13.9447" gradientUnits="userSpaceOnUse">
<stop stop-color="#F27123"/>
<stop offset="1" stop-color="#F05624"/>
</linearGradient>
<linearGradient id="paint15_linear_1907_780" x1="127.694" y1="21.1344" x2="152.423" y2="21.1344" gradientUnits="userSpaceOnUse">
<stop stop-color="#F27123"/>
<stop offset="0.74" stop-color="#ED3725"/>
</linearGradient>
<linearGradient id="paint16_linear_1907_780" x1="139.002" y1="11.3661" x2="150.388" y2="28.3797" gradientUnits="userSpaceOnUse">
<stop offset="0.05" stop-color="#EE4424"/>
<stop offset="0.85" stop-color="#F27123"/>
</linearGradient>
<linearGradient id="paint17_linear_1907_780" x1="136.734" y1="23.3618" x2="153.279" y2="29.3868" gradientUnits="userSpaceOnUse">
<stop stop-color="#EF4F24"/>
<stop offset="1" stop-color="#F27123"/>
</linearGradient>
<linearGradient id="paint18_linear_1907_780" x1="130.553" y1="12.5866" x2="152.337" y2="20.5197" gradientUnits="userSpaceOnUse">
<stop stop-color="#F27123"/>
<stop offset="0.83" stop-color="#F28A21"/>
</linearGradient>
<linearGradient id="paint19_linear_1907_780" x1="111.907" y1="30.1825" x2="134.977" y2="9.29196" gradientUnits="userSpaceOnUse">
<stop stop-color="#D9262A"/>
<stop offset="0.33" stop-color="#F05924"/>
</linearGradient>
<linearGradient id="paint20_linear_1907_780" x1="114.68" y1="21.8992" x2="122.263" y2="21.8992" gradientUnits="userSpaceOnUse">
<stop stop-color="#CB2127"/>
<stop offset="0.65" stop-color="#EE4223"/>
</linearGradient>
<linearGradient id="paint21_linear_1907_780" x1="120.162" y1="6.01873" x2="119.661" y2="19.3049" gradientUnits="userSpaceOnUse">
<stop offset="0.21" stop-color="#F05725"/>
<stop offset="0.78" stop-color="#F16724"/>
</linearGradient>
<linearGradient id="paint22_linear_1907_780" x1="101.88" y1="17.5326" x2="113.329" y2="17.5326" gradientUnits="userSpaceOnUse">
<stop stop-color="#F37521"/>
<stop offset="1" stop-color="#EC2224"/>
</linearGradient>
<linearGradient id="paint23_linear_1907_780" x1="100.551" y1="13.5019" x2="111.342" y2="13.5019" gradientUnits="userSpaceOnUse">
<stop stop-color="#EE4223"/>
<stop offset="0.75" stop-color="#EE4223"/>
</linearGradient>
<linearGradient id="paint24_linear_1907_780" x1="100.808" y1="8.456" x2="109.291" y2="8.456" gradientUnits="userSpaceOnUse">
<stop stop-color="#F37521"/>
<stop offset="1" stop-color="#EC2224"/>
</linearGradient>
<linearGradient id="paint25_linear_1907_780" x1="104.338" y1="23.9291" x2="117.632" y2="23.9291" gradientUnits="userSpaceOnUse">
<stop stop-color="#EE4223"/>
<stop offset="1" stop-color="#EC2224"/>
</linearGradient>
<linearGradient id="paint26_linear_1907_780" x1="104.517" y1="26.6379" x2="116.717" y2="26.6379" gradientUnits="userSpaceOnUse">
<stop stop-color="#F05F22"/>
<stop offset="1" stop-color="#EC2224"/>
</linearGradient>
<radialGradient id="paint27_radial_1907_780" cx="0" cy="0" r="1" gradientUnits="userSpaceOnUse" gradientTransform="translate(71.8156 2.85635) scale(3.34048 3.34048)">
<stop offset="0.26" stop-color="#4362AD"/>
<stop offset="1" stop-color="#2140A4"/>
</radialGradient>
</defs>
</svg>
